<svg width="38" height="34" viewBox="0 0 38 34" fill="none" xmlns="http://www.w3.org/2000/svg">
<path d="M16.15 3.43367L15.0813 2.78538L15.0777 2.79134L16.15 3.43367ZM2.03337 27.0003L0.961034 26.358C0.957603 26.3637 0.954218 26.3695 0.95088 26.3753L2.03337 27.0003ZM4.88337 32.0003L4.86963 33.2503H4.88337V32.0003ZM33.1167 32.0003V33.2504L33.1304 33.2503L33.1167 32.0003ZM35.9667 27.0003L37.0492 26.3753C37.0459 26.3695 37.0425 26.3637 37.039 26.358L35.9667 27.0003ZM21.85 3.43367L22.9224 2.79133L22.9188 2.78539L21.85 3.43367ZM19 1.8291V0.579102V1.8291ZM20.25 12.0003C20.25 11.31 19.6904 10.7503 19 10.7503C18.3097 10.7503 17.75 11.31 17.75 12.0003H20.25ZM17.75 18.667C17.75 19.3574 18.3097 19.917 19 19.917C19.6904 19.917 20.25 19.3574 20.25 18.667H17.75ZM19 24.0837C18.3097 24.0837 17.75 24.6433 17.75 25.3337C17.75 26.024 18.3097 26.5837 19 26.5837V24.0837ZM19.0167 26.5837C19.7071 26.5837 20.2667 26.024 20.2667 25.3337C20.2667 24.6433 19.7071 24.0837 19.0167 24.0837V26.5837ZM15.0777 2.79134L0.961034 26.358L3.1057 27.6427L17.2224 4.07601L15.0777 2.79134ZM0.95088 26.3753C0.550682 27.0683 0.338929 27.8541 0.336688 28.6544L2.83668 28.6614C2.8377 28.2976 2.93395 27.9404 3.11586 27.6254L0.95088 26.3753ZM0.336688 28.6544C0.334447 29.4547 0.541796 30.2416 0.938107 30.9369L3.11005 29.6989C2.92991 29.3828 2.83566 29.0251 2.83668 28.6614L0.336688 28.6544ZM0.938107 30.9369C1.33442 31.6322 1.90587 32.2116 2.59563 32.6174L3.86347 30.4628C3.54995 30.2783 3.29019 30.0149 3.11005 29.6989L0.938107 30.9369ZM2.59563 32.6174C3.28537 33.0233 4.06937 33.2415 4.86963 33.2503L4.89711 30.7504C4.53336 30.7464 4.177 30.6472 3.86347 30.4628L2.59563 32.6174ZM4.88337 33.2503H33.1167V30.7503H4.88337V33.2503ZM33.1304 33.2503C33.9307 33.2415 34.7147 33.0233 35.4044 32.6174L34.1366 30.4628C33.8231 30.6472 33.4667 30.7464 33.103 30.7504L33.1304 33.2503ZM35.4044 32.6174C36.0942 32.2116 36.6656 31.6322 37.062 30.9369L34.89 29.6989C34.7099 30.0149 34.4501 30.2783 34.1366 30.4628L35.4044 32.6174ZM37.062 30.9369C37.4583 30.2416 37.6656 29.4547 37.6634 28.6544L35.1634 28.6614C35.1644 29.0251 35.0702 29.3828 34.89 29.6989L37.062 30.9369ZM37.6634 28.6544C37.6611 27.8541 37.4494 27.0683 37.0492 26.3753L34.8842 27.6254C35.0661 27.9404 35.1624 28.2976 35.1634 28.6614L37.6634 28.6544ZM37.039 26.358L22.9224 2.79134L20.7777 4.07601L34.8944 27.6427L37.039 26.358ZM22.9188 2.78539C22.5102 2.11188 21.935 1.55504 21.2486 1.16858L20.0221 3.34705C20.3341 3.52271 20.5956 3.77582 20.7813 4.08196L22.9188 2.78539ZM21.2486 1.16858C20.5622 0.782125 19.7878 0.579102 19 0.579102V3.0791C19.3581 3.0791 19.7101 3.17138 20.0221 3.34705L21.2486 1.16858ZM19 0.579102C18.2123 0.579102 17.4379 0.782125 16.7515 1.16858L17.978 3.34705C18.29 3.17138 18.642 3.0791 19 3.0791V0.579102ZM16.7515 1.16858C16.065 1.55504 15.4898 2.11188 15.0813 2.78539L17.2188 4.08196C17.4045 3.77582 17.6659 3.52271 17.978 3.34705L16.7515 1.16858ZM17.75 12.0003V18.667H20.25V12.0003H17.75ZM19 26.5837H19.0167V24.0837H19V26.5837Z" fill="#ED8B00"/>
</svg>
