<svg width="41" height="40" viewBox="0 0 41 40" fill="none" xmlns="http://www.w3.org/2000/svg">
<path d="M40.1683 19.9984C40.1683 31.0457 31.1776 40 20.0865 40C8.99546 40 0 31.0457 0 19.9984C0 8.95426 8.99546 0 20.0865 0C31.1776 0 40.1683 8.95426 40.1683 19.9984Z" fill="#026ABD"/>
<path fill-rule="evenodd" clip-rule="evenodd" d="M10.4664 30.9365H29.6992V29.363H10.4664V30.9365ZM20.0675 14.1146L10.4709 18.3213V16.584L20.0675 12.3758L29.6951 16.584V18.3213L20.0675 14.1146ZM20.07 7.80535C24.3105 7.80535 28.3675 10.6947 29.6992 14.5914L27.3487 13.5579C26.0726 11.5368 23.5418 9.47142 20.07 9.47142C17.1716 9.47142 14.4264 11.0102 12.8271 13.5026L10.4663 14.5171C11.825 10.6638 15.8764 7.80535 20.07 7.80535ZM23.9254 27.3264H21.987V20.0461H23.9254V27.3264ZM16.2278 27.3264H18.1662V20.0461H16.2278V27.3264ZM12.4023 27.3264H10.4663V20.0461H12.4023V27.3264ZM27.7531 27.3264H29.6915V20.0461H27.7531V27.3264Z" fill="white"/>
</svg>
