<?xml version="1.0" encoding="utf-8"?>
<!-- Generator: Adobe Illustrator 26.5.0, SVG Export Plug-In . SVG Version: 6.00 Build 0)  -->
<svg version="1.1" id="Layer_1" xmlns="http://www.w3.org/2000/svg" xmlns:xlink="http://www.w3.org/1999/xlink" x="0px" y="0px"
	 viewBox="0 0 1920 1024" style="enable-background:new 0 0 1920 1024;" xml:space="preserve">
<style type="text/css">
	.st0{fill:#EBECED;}
	.st1{clip-path:url(#SVGID_00000088129413418911887330000015491044028644623549_);}
	.st2{fill:none;stroke:#B8BCBF;stroke-width:1.5;stroke-miterlimit:10;}
</style>
<rect class="st0" width="1920" height="1024"/>
<g>
	<defs>
		<rect id="SVGID_1_" x="0.3" y="1.6" width="1919.7" height="1022.4"/>
	</defs>
	<clipPath id="SVGID_00000005957323401349776480000009003388563506430601_">
		<use xlink:href="#SVGID_1_"  style="overflow:visible;"/>
	</clipPath>
	<g style="clip-path:url(#SVGID_00000005957323401349776480000009003388563506430601_);">
		<g>
			<path class="st2" d="M77.9,1358.5l2276.9-152.4l-410.7-728.6c-124.9,147.1-403.1,268-822.3,223.1C619.2,646.6,693,180-49.3,600.4
				C-262.2,665.2,77.9,1358.5,77.9,1358.5L77.9,1358.5z"/>
			<path class="st2" d="M74.5,1428.8c0,0-347.9-701.9-94.1-774.4C693.7,268.3,664,747.7,1184.5,794.8
				c450.1,39.1,718.8-121.8,832.3-288.2l371.9,812.1L74.5,1428.8z"/>
			<path class="st2" d="M71,1499c0,0-355.8-710.3-60.9-790.6c684.3-351.7,698.6,141.9,1237,180.6
				c480.9,34.6,740.2-167.6,842.2-353.4l333.1,895.5L71,1499z"/>
			<path class="st2" d="M67.6,1569.2c0,0-363.6-718.8-27.7-806.8C695.2,445,753.5,951.7,1309.7,983.2
				c511.7,29,761.5-213.4,852.2-418.6l294.3,978.9L67.6,1569.2L67.6,1569.2z"/>
			<path class="st2" d="M64.1,1639.4c0,0-371.4-727.2,5.4-823c626.3-283,728.8,236.4,1302.8,261.1
				c542.6,23.3,782.9-259.3,862.1-483.7L2490,1656.1L64.1,1639.4L64.1,1639.4z"/>
			<path class="st2" d="M60.7,1709.7c0,0-379.3-735.7,38.6-839.2c597.4-248.7,743.9,283.3,1335.7,301.3
				c573.5,17.4,804.3-305.1,872.1-548.9l216.7,1145.8L60.7,1709.7z"/>
			<path class="st2" d="M57.2,1779.9c0,0-387.1-744.1,71.7-855.4c568.4-214.4,759,330.1,1368.6,341.5
				c604.4,11.3,825.7-350.9,882.1-614.1l177.9,1229.2L57.2,1779.9z"/>
			<path class="st2" d="M53.8,1850.1c0,0-394.9-752.6,104.9-871.6c539.4-180,774.2,375.6,1401.5,381.7
				c635.3,3.8,847-396.8,892-679.2l139.1,1312.6L53.8,1850.1z"/>
			<path class="st2" d="M50.3,1920.4c0,0-402.8-761.1,138.1-887.8c510.4-145.7,789.2,422.6,1434.5,421.9
				c666.1-2,868.4-442.6,902-744.4l100.4,1396L50.3,1920.4z"/>
			<path class="st2" d="M46.9,1990.6c0,0-410.6-769.5,171.2-904c481.4-111.3,804.3,469.6,1467.4,462.1
				c697-7.9,889.8-488.4,912-809.6l61.6,1479.4L46.9,1990.6z"/>
		</g>
	</g>
</g>
</svg>
