<svg width="100" height="100" viewBox="0 0 100 100" fill="none" xmlns="http://www.w3.org/2000/svg">
<circle cx="50" cy="50" r="50" fill="#F5F7FA"/>
<g clip-path="url(#clip0_5197_55868)">
<path d="M37.778 58.0001H30C29.4696 58.0001 28.9609 57.7893 28.5858 57.4143C28.2107 57.0392 28 56.5305 28 56V44C28 43.4696 28.2107 42.9609 28.5858 42.5858C28.9609 42.2108 29.4696 42 30 42H37.778L48.366 33.336C48.5125 33.2159 48.6901 33.1399 48.8781 33.1168C49.0662 33.0937 49.2569 33.1245 49.4281 33.2056C49.5993 33.2867 49.7439 33.4148 49.8452 33.5749C49.9464 33.735 50.0001 33.9206 50 34.11V65.8901C50.0001 66.0795 49.9464 66.2651 49.8452 66.4252C49.7439 66.5853 49.5993 66.7134 49.4281 66.7945C49.2569 66.8756 49.0662 66.9064 48.8781 66.8833C48.6901 66.8602 48.5125 66.7842 48.366 66.6641L37.78 58.0001H37.778ZM64.812 66.2681L61.98 63.4361C63.8759 61.7491 65.3927 59.6794 66.4304 57.3634C67.4681 55.0475 68.003 52.5378 68 50C68.0025 47.3322 67.4107 44.6973 66.2677 42.2868C65.1247 39.8762 63.4591 37.7505 61.392 36.064L64.232 33.224C66.6689 35.2871 68.6265 37.857 69.9681 40.7544C71.3098 43.6519 72.0032 46.8071 72 50C72 56.4461 69.228 62.2441 64.812 66.2681ZM57.726 59.1821L54.882 56.338C55.8529 55.5914 56.6392 54.6315 57.1798 53.5325C57.7205 52.4335 58.0011 51.2249 58 50C58 47.14 56.5 44.63 54.24 43.216L57.118 40.338C58.6329 41.4524 59.8642 42.9077 60.7124 44.5863C61.5605 46.2648 62.0016 48.1194 62 50C62 53.684 60.34 56.98 57.726 59.1821Z" fill="#D1DCE7"/>
</g>
<defs>
<clipPath id="clip0_5197_55868">
<rect width="48" height="48" fill="white" transform="translate(26 26)"/>
</clipPath>
</defs>
</svg>
