<svg width="132" height="132" viewBox="0 0 132 132" fill="none" xmlns="http://www.w3.org/2000/svg">
<circle cx="66" cy="66" r="66" fill="#F5F7FA"/>
<path d="M57.2 90.1996H74.8M72.6 60.1476V48.3996C72.6017 46.7629 71.9951 45.1839 70.898 43.9693C69.801 42.7546 68.2918 41.9909 66.6633 41.8264C65.0349 41.6619 63.4034 42.1084 62.0856 43.0791C60.7678 44.0499 59.8577 45.4756 59.532 47.0796M77 76.8896C74.8523 79.0818 72.0987 80.5822 69.0924 81.1985C66.086 81.8148 62.9641 81.5189 60.1271 80.3486C57.2901 79.1784 54.8675 77.1872 53.17 74.6306C51.4725 72.0739 50.5776 69.0684 50.6 65.9996V61.5996M81.4 61.5996V65.9996C81.3992 66.907 81.3182 67.8125 81.158 68.7056M66 81.3996V90.1996M59.4 59.3996V65.9996C59.4012 67.3041 59.7889 68.579 60.5142 69.6633C61.2395 70.7476 62.2698 71.5927 63.4751 72.0917C64.6804 72.5908 66.0065 72.7215 67.286 72.4673C68.5655 72.2131 69.741 71.5855 70.664 70.6636L59.4 59.3996Z" stroke="#526E88" stroke-width="3" stroke-linecap="round" stroke-linejoin="round"/>
<path d="M41.8 41.7998L90.2 90.1998" stroke="#F45A67" stroke-width="3" stroke-linecap="round" stroke-linejoin="round"/>
</svg>
