<svg width="36" height="36" viewBox="0 0 36 36" fill="none" xmlns="http://www.w3.org/2000/svg">
<path d="M27.2034 13.8975C27.699 13.4169 27.7112 12.6256 27.2306 12.13C26.75 11.6344 25.9587 11.6222 25.4631 12.1028L27.2034 13.8975ZM16.0208 23.0002L15.1506 23.8975C15.6354 24.3677 16.4061 24.3677 16.8909 23.8975L16.0208 23.0002ZM12.2034 17.5573C11.7078 17.0767 10.9165 17.0889 10.4359 17.5845C9.95529 18.0801 9.96746 18.8715 10.4631 19.3521L12.2034 17.5573ZM33.4166 18.0002C33.4166 26.5146 26.5143 33.4168 17.9999 33.4168V35.9168C27.895 35.9168 35.9166 27.8953 35.9166 18.0002H33.4166ZM17.9999 33.4168C9.48553 33.4168 2.58325 26.5146 2.58325 18.0002H0.083252C0.083252 27.8953 8.10482 35.9168 17.9999 35.9168V33.4168ZM2.58325 18.0002C2.58325 9.48577 9.48553 2.5835 17.9999 2.5835V0.0834961C8.10482 0.0834961 0.083252 8.10506 0.083252 18.0002H2.58325ZM17.9999 2.5835C26.5143 2.5835 33.4166 9.48577 33.4166 18.0002H35.9166C35.9166 8.10506 27.895 0.0834961 17.9999 0.0834961V2.5835ZM25.4631 12.1028L15.1506 22.1028L16.8909 23.8975L27.2034 13.8975L25.4631 12.1028ZM16.8909 22.1028L12.2034 17.5573L10.4631 19.3521L15.1506 23.8975L16.8909 22.1028Z" fill="#49BF78"/>
</svg>
