<svg width="192" height="40" viewBox="0 0 192 40" fill="none" xmlns="http://www.w3.org/2000/svg">
<path d="M41.7537 21.2115H43.6184V22.2926C43.6184 23.8241 45.8139 24.4848 47.5583 24.4848C49.4831 24.4848 51.1071 23.6439 51.1071 22.1124C51.1071 20.3707 49.1823 19.7701 47.0169 18.9592C44.7312 18.1184 42.3252 17.0974 42.3252 14.4547C42.3252 11.692 45.0319 10.4307 47.5583 10.4307C49.6034 10.4307 52.5808 11.3016 52.5808 13.3737V15.1154H50.7161V14.0043C50.7161 12.8932 49.2124 12.2025 47.6184 12.2025C45.9342 12.2025 44.4304 12.9232 44.4304 14.3947C44.4304 16.0463 46.265 16.737 48.25 17.4577C50.5958 18.2986 53.1823 19.2896 53.1823 21.9923C53.1823 24.6049 50.8364 26.2565 47.468 26.2565C44.671 26.2565 41.7537 24.9953 41.7537 22.683V21.2115Z" fill="#47114C"/>
<path d="M62.8213 10.4307C67.0018 10.4307 69.1672 13.6439 69.1672 17.3977C69.1672 17.758 69.077 18.3586 69.077 18.3586H57.468C57.5582 22.2325 60.2048 24.4247 63.3326 24.4247C66.0995 24.4247 67.9341 22.6229 67.9341 22.6229L68.8665 24.1544C68.8665 24.1544 66.701 26.2565 63.2725 26.2565C58.7612 26.2565 55.3627 23.0133 55.3627 18.3586C55.3627 13.4037 58.7311 10.4307 62.8213 10.4307ZM67.0319 16.8571C66.9116 13.674 64.9868 12.1424 62.7612 12.1424C60.2349 12.1424 58.0394 13.7941 57.5582 16.8571H67.0319Z" fill="#47114C"/>
<path d="M71.3376 24.2145H73.6834V13.1335C73.6834 12.683 73.4428 12.4728 73.0218 12.4728H70.9767V10.7911H73.8338C75.097 10.7911 75.6684 11.3016 75.6684 12.5028V13.5238C75.6684 14.1545 75.6082 14.665 75.6082 14.665H75.6684C76.4203 12.3827 78.1045 10.641 80.4503 10.641C80.8714 10.641 81.2924 10.731 81.2924 10.731V12.7431C81.2924 12.7431 80.9015 12.683 80.5105 12.683C77.112 12.683 75.7285 16.4968 75.7285 19.4998V24.2145H78.0744V25.8962H71.3376V24.2145Z" fill="#47114C"/>
<path d="M91.5381 16.6469H92.5306V16.0163C92.5306 13.1935 90.9967 12.2025 88.8915 12.2025C86.3351 12.2025 84.5005 13.674 84.5005 13.674L83.5381 12.1424C83.5381 12.1424 85.5832 10.4307 89.0118 10.4307C92.681 10.4307 94.5757 12.3827 94.5757 16.1064V23.5538C94.5757 24.0043 94.8163 24.2145 95.2374 24.2145H96.8915V25.8962H94.4253C93.1321 25.8962 92.6208 25.3256 92.6208 24.2445V23.9743C92.6208 23.2535 92.711 22.8031 92.711 22.8031H92.6509C92.6509 22.8031 91.3577 26.2565 87.478 26.2565C85.0118 26.2565 82.4253 24.8451 82.4253 21.752C82.4303 16.8571 88.9817 16.6469 91.5381 16.6469ZM87.7837 24.5749C90.8213 24.5749 92.5356 21.5418 92.5356 18.8992V18.1785H91.6634C90.4303 18.1785 84.5356 18.0583 84.5356 21.5418C84.5306 23.1034 85.6734 24.5749 87.7837 24.5749Z" fill="#47114C"/>
<path d="M98.8917 24.2145H101.448V13.1334C101.448 12.683 101.207 12.4728 100.786 12.4728H98.7413V10.7911H101.629C102.892 10.7911 103.463 11.3316 103.463 12.4728V13.3436C103.463 13.9442 103.343 14.4247 103.343 14.4247H103.403C104.185 12.3827 106.621 10.4307 109.027 10.4307C111.764 10.4307 113.207 11.722 113.629 14.2746H113.689C114.531 12.2625 116.726 10.4307 119.283 10.4307C122.922 10.4307 124.275 12.5628 124.275 16.2866V24.2145H126.832V25.8962H122.23V16.7971C122.23 14.3346 121.719 12.2926 118.982 12.2926C115.914 12.2926 113.899 15.5358 113.899 18.6589V24.2145H116.456V25.8962H111.854V16.7971C111.854 14.5148 111.553 12.2926 108.666 12.2926C105.568 12.2926 103.493 15.5658 103.493 18.719V24.2145H106.05V25.8962H98.8917V24.2145Z" fill="#47114C"/>
<path d="M135.809 10.4307C140.23 10.4307 143.809 13.7941 143.809 18.2686C143.809 22.8331 140.23 26.2565 135.809 26.2565C131.418 26.2565 127.839 22.8331 127.839 18.2686C127.839 13.7941 131.418 10.4307 135.809 10.4307ZM135.809 24.4247C139.057 24.4247 141.704 21.7821 141.704 18.2686C141.704 14.8451 139.057 12.2625 135.809 12.2625C132.591 12.2625 129.944 14.8451 129.944 18.2686C129.944 21.7821 132.591 24.4247 135.809 24.4247Z" fill="#47114C"/>
<path d="M147.328 12.4729H144.621V10.7912H149.373V19.8903C149.373 22.2627 149.734 24.3648 152.681 24.3648C156.08 24.3648 158.245 21.2417 158.245 17.9684V12.4729H155.538V10.7912H160.29V23.584C160.29 24.0345 160.531 24.2447 160.952 24.2447H162.666V25.8963H160.11C158.847 25.8963 158.305 25.3558 158.305 24.2147V23.4639C158.305 22.8633 158.335 22.3828 158.335 22.3828H158.275C157.884 23.524 156.019 26.2567 152.29 26.2567C148.801 26.2567 147.328 24.3348 147.328 20.4008V12.4729Z" fill="#47114C"/>
<path d="M164.776 24.2145H167.333V13.1334C167.333 12.683 167.092 12.4728 166.671 12.4728H164.626V10.7911H167.513C168.776 10.7911 169.348 11.3316 169.348 12.4728V13.3436C169.348 13.9442 169.227 14.4247 169.227 14.4247H169.288C169.709 13.2836 171.663 10.4307 175.453 10.4307C179.182 10.4307 180.476 12.5628 180.476 16.2866V24.2145H183.032V25.8962H178.43V16.8271C178.43 14.4547 178.039 12.3526 175.122 12.3526C171.784 12.3526 169.378 15.2956 169.378 18.6289V24.2145H171.934V25.8962H164.776V24.2145Z" fill="#47114C"/>
<path d="M185.568 12.4727H182.861V10.7911H185.598V6.61689H187.613V10.7911H191.433V12.4727H187.613V20.2205C187.613 23.764 189.869 24.2445 191.042 24.2445C191.463 24.2445 191.734 24.1845 191.734 24.1845V25.9562C191.734 25.9562 191.373 26.0163 190.861 26.0163C189.117 26.0163 185.568 25.4457 185.568 20.4007V12.4727Z" fill="#47114C"/>
<path d="M141.343 32.6631H142.235V33.0935C142.235 33.2937 142.215 33.4639 142.215 33.4639H142.235C142.235 33.4639 142.666 32.543 143.939 32.543C145.303 32.543 146.165 33.6241 146.165 35.1956C146.165 36.8072 145.192 37.8483 143.869 37.8483C142.756 37.8483 142.315 37.0174 142.315 37.0174H142.295C142.295 37.0174 142.315 37.1976 142.315 37.4579V39.7302H141.343V32.6631ZM143.719 37.0174C144.521 37.0174 145.182 36.3568 145.182 35.2056C145.182 34.1045 144.591 33.3938 143.749 33.3938C142.987 33.3938 142.285 33.9244 142.285 35.2156C142.285 36.1165 142.786 37.0174 143.719 37.0174Z" fill="#47114C"/>
<path d="M149.949 34.565H150.17V34.4749C150.17 33.6441 149.699 33.3638 149.057 33.3638C148.275 33.3638 147.643 33.8543 147.643 33.8543L147.242 33.1436C147.242 33.1436 147.974 32.543 149.137 32.543C150.42 32.543 151.142 33.2437 151.142 34.525V37.7282H150.24V37.2477C150.24 37.0174 150.26 36.8473 150.26 36.8473H150.24C150.24 36.8473 149.829 37.8483 148.616 37.8483C147.744 37.8483 146.892 37.3177 146.892 36.3067C146.892 34.6351 149.097 34.565 149.949 34.565ZM148.826 37.0675C149.649 37.0675 150.18 36.2066 150.18 35.4559V35.2957H149.929C149.197 35.2957 147.874 35.3458 147.874 36.2567C147.874 36.6671 148.195 37.0675 148.826 37.0675Z" fill="#47114C"/>
<path d="M152.536 32.6633H153.478V33.5442C153.478 33.7544 153.458 33.9246 153.458 33.9246H153.478C153.709 33.1839 154.3 32.6033 155.082 32.6033C155.212 32.6033 155.333 32.6233 155.333 32.6233V33.5843C155.333 33.5843 155.202 33.5542 155.052 33.5542C154.43 33.5542 153.859 33.9947 153.628 34.7454C153.538 35.0357 153.508 35.346 153.508 35.6563V37.7284H152.536V32.6633Z" fill="#47114C"/>
<path d="M156.606 33.5142H155.944V32.7334H156.636V31.2719H157.578V32.7334H158.801V33.5142H157.578V35.7664C157.578 36.7774 158.29 36.9076 158.661 36.9076C158.801 36.9076 158.891 36.8875 158.891 36.8875V37.7484C158.891 37.7484 158.751 37.7684 158.551 37.7684C157.899 37.7684 156.606 37.5682 156.606 35.8765V33.5142Z" fill="#47114C"/>
<path d="M164.932 32.543C166.445 32.543 167.668 33.6541 167.668 35.1856C167.668 36.7272 166.445 37.8483 164.932 37.8483C163.418 37.8483 162.195 36.7272 162.195 35.1856C162.19 33.6541 163.413 32.543 164.932 32.543ZM164.932 37.0074C165.894 37.0074 166.676 36.2467 166.676 35.1856C166.676 34.1346 165.894 33.3838 164.932 33.3838C163.979 33.3838 163.187 34.1346 163.187 35.1856C163.182 36.2467 163.974 37.0074 164.932 37.0074Z" fill="#47114C"/>
<path d="M168.921 33.5141H168.29V32.7333H168.921V32.493C168.921 30.8214 170.185 30.6112 170.826 30.6112C171.047 30.6112 171.197 30.6412 171.197 30.6412V31.472C171.197 31.472 171.097 31.452 170.947 31.452C170.576 31.452 169.884 31.5721 169.884 32.5131V32.7333H171.087V33.5141H169.884V37.7283H168.921V33.5141Z" fill="#47114C"/>
<path d="M174.796 30.6613H178.907V31.5221H175.789V33.7343H178.325V34.5952H175.789V36.8675H179.077V37.7283H174.796V30.6613Z" fill="#47114C"/>
<path d="M184.205 35.6963H181.538L180.836 37.7283H179.814L182.36 30.6613H183.403L185.949 37.7283H184.917L184.205 35.6963ZM182.871 31.6322C182.871 31.6322 182.711 32.2729 182.591 32.6332L181.799 34.8755H183.944L183.162 32.6332C183.042 32.2729 182.892 31.6322 182.892 31.6322H182.871Z" fill="#47114C"/>
<path d="M186.916 30.6613H189.393C190.586 30.6613 191.448 31.3219 191.448 32.4631C191.448 33.1538 191.107 33.7043 190.566 33.9846V34.0046C191.307 34.2248 191.729 34.9255 191.729 35.7163C191.729 37.0477 190.696 37.7283 189.453 37.7283H186.916V30.6613ZM189.393 33.6342C190.034 33.6342 190.435 33.1838 190.435 32.5632C190.435 31.9425 190.054 31.5221 189.373 31.5221H187.909V33.6342H189.393ZM189.503 36.8675C190.265 36.8675 190.716 36.387 190.716 35.6663C190.716 34.9455 190.235 34.4551 189.493 34.4551H187.909V36.8675H189.503Z" fill="#47114C"/>
<path d="M23.2926 28.4239C24.1597 26.557 24.0946 24.4499 23.1121 22.3328C22.0745 20.0956 20.0344 17.8633 17.057 15.7062C12.0645 12.0876 10.0094 8.27376 11.4129 5.24072C12.265 3.40389 14.285 1.94743 17.1021 1.13662C18.0093 0.876359 18.9667 0.696179 19.9592 0.591074C18.8414 0.350833 17.6835 0.220703 16.4956 0.220703C16.3703 0.220703 16.2449 0.220703 16.1196 0.225708C14.5006 0.260743 12.9317 0.831314 11.7136 1.89738C10.8464 2.65314 10.1798 3.519 9.73867 4.47496C8.87151 6.34183 8.93667 8.44893 9.91913 10.566C10.9567 12.8033 12.9968 15.0355 15.9743 17.1927C20.9667 20.8113 23.0219 24.6251 21.6184 27.6581C20.7662 29.495 18.7462 30.9514 15.9292 31.7622C15.0369 32.0175 14.0946 32.1977 13.1171 32.3028C14.2099 32.533 15.3377 32.6581 16.4956 32.6581C16.7011 32.6581 16.9116 32.6531 17.1171 32.6481C18.686 32.5881 20.1998 31.9975 21.3728 30.9564C22.2099 30.2057 22.8615 29.3598 23.2926 28.4239Z" fill="#47114C"/>
<path d="M28.4455 23.8792C27.8139 20.4707 25.0069 16.9122 19.869 12.9983C17.3177 11.0563 16.1898 9.04933 16.6059 7.18747C17.1071 4.94022 19.854 3.03331 23.9893 2.04232L23.3979 1.73702C22.4756 1.25654 21.3878 1.2165 20.4355 1.62691C17.4931 2.88316 15.6184 4.70499 15.1372 6.86214C14.7512 8.58887 15.1021 11.2615 18.9568 14.1945C28.2751 21.2916 28.0144 25.8762 25.7939 29.735C26.3703 29.3346 26.9167 28.8942 27.433 28.4237C28.0645 27.8481 28.4705 27.0623 28.5508 26.2165C28.6259 25.4707 28.5959 24.695 28.4455 23.8792Z" fill="#47114C"/>
<path d="M25.0018 13.0636C23.2775 11.8124 21.2825 9.92047 21.5832 8.01356C21.8339 6.41196 23.6434 4.93548 26.701 3.81937C26.5406 3.68924 26.3752 3.5591 26.2048 3.43398C25.8288 3.1537 25.3276 3.09864 24.9015 3.29384C21.6133 4.79534 20.6309 6.53708 20.4304 7.83338C20.1146 9.83038 21.4228 11.9075 24.3151 14.0096C29.9792 18.1187 31.1622 21.6822 31.4078 22.8784C31.5231 22.6182 31.6283 22.3529 31.7286 22.0826C31.9692 21.442 31.9341 20.7263 31.6133 20.1207C30.6359 18.2688 28.7261 15.7663 25.0018 13.0636Z" fill="#47114C"/>
<path d="M28.3502 11.9724C26.5106 10.4509 25.6484 9.07451 25.8589 7.98843C26.0344 7.07751 26.9767 6.2667 28.6008 5.62106C28.4354 5.43587 28.2649 5.25569 28.0945 5.08052C28.0293 5.01545 27.9291 4.99543 27.8489 5.03547C26.1998 5.77121 25.2574 6.71215 25.0419 7.83327C24.7662 9.25469 25.7035 10.8663 27.8188 12.6181C30.3953 14.7502 31.9241 16.572 32.701 17.6231C32.711 17.4529 32.7261 17.2177 32.7361 16.9924C32.7511 16.557 32.6008 16.1316 32.3151 15.8012C31.4078 14.7552 30.1196 13.4389 28.3502 11.9724Z" fill="#47114C"/>
<path d="M29.5986 6.84739C29.5484 6.78232 29.4482 6.77732 29.393 6.83738C28.9068 7.40294 28.6412 7.94348 28.6512 8.53908C28.6762 9.6602 29.6437 10.8514 32.3805 13.0186C32.3554 12.9034 32.3304 12.7833 32.3003 12.6682C32.2151 12.3028 32.0096 11.9725 31.7239 11.7273C29.9394 10.2208 29.2527 9.30484 29.2376 8.52406C29.2276 8.08362 29.4482 7.6582 29.8492 7.19273C29.764 7.08262 29.6838 6.9625 29.5986 6.84739Z" fill="#47114C"/>
<path d="M4.55077 8.99453C5.18235 12.4029 7.98937 15.9615 13.1272 19.8754C15.6786 21.8174 16.8064 23.8244 16.3904 25.6862C15.8891 27.9335 13.1422 29.8404 9.00691 30.8314L9.59839 31.1367C10.5207 31.6172 11.6084 31.6572 12.5608 31.2468C15.4981 29.9905 17.3728 28.1687 17.854 26.0065C18.24 24.2798 17.8891 21.6071 14.0345 18.6742C4.72621 11.5821 4.98686 6.99754 7.2024 3.13868C6.62596 3.53908 6.07959 3.97952 5.5633 4.44999C4.93172 5.02556 4.52571 5.81135 4.44551 6.6572C4.37533 7.39794 4.40039 8.17872 4.55077 8.99453Z" fill="#47114C"/>
<path d="M7.99459 19.8103C9.7189 21.0616 11.7139 22.9535 11.4131 24.8604C11.1625 26.462 9.35298 27.9385 6.29534 29.0546C6.45574 29.1847 6.62115 29.3148 6.79158 29.44C7.16752 29.7202 7.66877 29.7753 8.09484 29.5801C11.3831 28.0786 12.3655 26.3369 12.566 25.0406C12.8818 23.0436 11.5735 20.9665 8.6813 18.8644C3.02216 14.7553 1.83419 11.1917 1.58857 9.99552C1.47328 10.2558 1.36802 10.521 1.26777 10.7913C1.02717 11.432 1.06226 12.1477 1.38306 12.7533C2.3605 14.6051 4.27028 17.1076 7.99459 19.8103Z" fill="#47114C"/>
<path d="M4.65066 20.9015C6.49026 22.423 7.35242 23.7994 7.14189 24.8854C6.96645 25.7964 6.0241 26.6072 4.40004 27.2528C4.56545 27.438 4.73588 27.6182 4.9063 27.7933C4.97147 27.8584 5.07172 27.8784 5.15192 27.8384C6.80104 27.1027 7.7434 26.1617 7.95894 25.0406C8.23462 23.6192 7.29728 22.0076 5.18199 20.2558C2.60555 18.1237 1.07673 16.3019 0.299788 15.2508C0.289763 15.421 0.274725 15.6562 0.2647 15.8814C0.249662 16.3169 0.400038 16.7423 0.685753 17.0726C1.58801 18.1187 2.87623 19.435 4.65066 20.9015Z" fill="#47114C"/>
<path d="M3.39703 26.0264C3.44716 26.0915 3.54741 26.0965 3.60255 26.0364C4.08876 25.4709 4.35443 24.9303 4.3444 24.3347C4.31934 23.2136 3.35192 22.0224 0.615079 19.8553C0.640142 19.9704 0.665205 20.0905 0.69528 20.2056C0.780493 20.571 0.986007 20.9013 1.27172 21.1466C3.05618 22.6531 3.7429 23.569 3.75794 24.3498C3.76796 24.7902 3.54741 25.2156 3.14641 25.6811C3.23162 25.7912 3.31182 25.9063 3.39703 26.0264Z" fill="#47114C"/>
</svg>
