<svg width="192" height="40" viewBox="0 0 192 40" fill="none" xmlns="http://www.w3.org/2000/svg">
<path d="M41.7543 21.2115H43.6189V22.2926C43.6189 23.8241 45.8144 24.4848 47.5588 24.4848C49.4836 24.4848 51.1077 23.6439 51.1077 22.1124C51.1077 20.3707 49.1829 19.7701 47.0174 18.9592C44.7317 18.1184 42.3257 17.0974 42.3257 14.4547C42.3257 11.692 45.0325 10.4307 47.5588 10.4307C49.6039 10.4307 52.5814 11.3016 52.5814 13.3737V15.1154H50.7167V14.0043C50.7167 12.8932 49.2129 12.2025 47.6189 12.2025C45.9347 12.2025 44.431 12.9232 44.431 14.3947C44.431 16.0463 46.2656 16.737 48.2505 17.4577C50.5964 18.2986 53.1829 19.2896 53.1829 21.9923C53.1829 24.6049 50.837 26.2565 47.4686 26.2565C44.6716 26.2565 41.7543 24.9953 41.7543 22.683V21.2115Z" fill="white"/>
<path d="M62.8219 10.4307C67.0023 10.4307 69.1678 13.6439 69.1678 17.3977C69.1678 17.758 69.0775 18.3586 69.0775 18.3586H57.4685C57.5587 22.2325 60.2053 24.4247 63.3332 24.4247C66.1001 24.4247 67.9347 22.6229 67.9347 22.6229L68.867 24.1544C68.867 24.1544 66.7016 26.2565 63.273 26.2565C58.7617 26.2565 55.3632 23.0133 55.3632 18.3586C55.3632 13.4037 58.7317 10.4307 62.8219 10.4307ZM67.0324 16.8571C66.9121 13.674 64.9873 12.1424 62.7617 12.1424C60.2354 12.1424 58.0399 13.7941 57.5587 16.8571H67.0324Z" fill="white"/>
<path d="M71.3381 24.2145H73.684V13.1335C73.684 12.683 73.4434 12.4728 73.0223 12.4728H70.9772V10.7911H73.8344C75.0975 10.7911 75.6689 11.3016 75.6689 12.5028V13.5238C75.6689 14.1545 75.6088 14.665 75.6088 14.665H75.6689C76.4208 12.3827 78.105 10.641 80.4509 10.641C80.8719 10.641 81.293 10.731 81.293 10.731V12.7431C81.293 12.7431 80.902 12.683 80.511 12.683C77.1125 12.683 75.7291 16.4968 75.7291 19.4998V24.2145H78.0749V25.8962H71.3381V24.2145Z" fill="white"/>
<path d="M91.5387 16.6469H92.5311V16.0163C92.5311 13.1935 90.9973 12.2025 88.892 12.2025C86.3356 12.2025 84.5011 13.674 84.5011 13.674L83.5387 12.1424C83.5387 12.1424 85.5838 10.4307 89.0123 10.4307C92.6815 10.4307 94.5762 12.3827 94.5762 16.1064V23.5538C94.5762 24.0043 94.8168 24.2145 95.2379 24.2145H96.892V25.8962H94.4259C93.1326 25.8962 92.6214 25.3256 92.6214 24.2445V23.9743C92.6214 23.2535 92.7116 22.8031 92.7116 22.8031H92.6514C92.6514 22.8031 91.3582 26.2565 87.4785 26.2565C85.0123 26.2565 82.4259 24.8451 82.4259 21.752C82.4309 16.8571 88.9823 16.6469 91.5387 16.6469ZM87.7843 24.5749C90.8219 24.5749 92.5361 21.5418 92.5361 18.8992V18.1785H91.664C90.4309 18.1785 84.5361 18.0583 84.5361 21.5418C84.5311 23.1034 85.674 24.5749 87.7843 24.5749Z" fill="white"/>
<path d="M98.8922 24.2145H101.449V13.1334C101.449 12.683 101.208 12.4728 100.787 12.4728H98.7419V10.7911H101.629C102.892 10.7911 103.464 11.3316 103.464 12.4728V13.3436C103.464 13.9442 103.343 14.4247 103.343 14.4247H103.404C104.185 12.3827 106.622 10.4307 109.028 10.4307C111.764 10.4307 113.208 11.722 113.629 14.2746H113.689C114.531 12.2625 116.727 10.4307 119.283 10.4307C122.922 10.4307 124.276 12.5628 124.276 16.2866V24.2145H126.832V25.8962H122.231V16.7971C122.231 14.3346 121.719 12.2926 118.982 12.2926C115.915 12.2926 113.9 15.5358 113.9 18.6589V24.2145H116.456V25.8962H111.855V16.7971C111.855 14.5148 111.554 12.2926 108.667 12.2926C105.569 12.2926 103.494 15.5658 103.494 18.719V24.2145H106.05V25.8962H98.8922V24.2145Z" fill="white"/>
<path d="M135.809 10.4307C140.23 10.4307 143.809 13.7941 143.809 18.2686C143.809 22.8331 140.23 26.2565 135.809 26.2565C131.418 26.2565 127.839 22.8331 127.839 18.2686C127.839 13.7941 131.418 10.4307 135.809 10.4307ZM135.809 24.4247C139.058 24.4247 141.704 21.7821 141.704 18.2686C141.704 14.8451 139.058 12.2625 135.809 12.2625C132.591 12.2625 129.945 14.8451 129.945 18.2686C129.945 21.7821 132.591 24.4247 135.809 24.4247Z" fill="white"/>
<path d="M147.328 12.4729H144.621V10.7912H149.373V19.8903C149.373 22.2627 149.734 24.3648 152.682 24.3648C156.08 24.3648 158.246 21.2417 158.246 17.9684V12.4729H155.539V10.7912H160.291V23.584C160.291 24.0345 160.531 24.2447 160.952 24.2447H162.667V25.8963H160.11C158.847 25.8963 158.306 25.3558 158.306 24.2147V23.4639C158.306 22.8633 158.336 22.3828 158.336 22.3828H158.276C157.885 23.524 156.02 26.2567 152.291 26.2567C148.802 26.2567 147.328 24.3348 147.328 20.4008V12.4729Z" fill="white"/>
<path d="M164.777 24.2145H167.333V13.1334C167.333 12.683 167.093 12.4728 166.672 12.4728H164.626V10.7911H167.514C168.777 10.7911 169.348 11.3316 169.348 12.4728V13.3436C169.348 13.9442 169.228 14.4247 169.228 14.4247H169.288C169.709 13.2836 171.664 10.4307 175.454 10.4307C179.183 10.4307 180.476 12.5628 180.476 16.2866V24.2145H183.032V25.8962H178.431V16.8271C178.431 14.4547 178.04 12.3526 175.123 12.3526C171.784 12.3526 169.378 15.2956 169.378 18.6289V24.2145H171.935V25.8962H164.777V24.2145Z" fill="white"/>
<path d="M185.569 12.4727H182.862V10.7911H185.599V6.61689H187.614V10.7911H191.433V12.4727H187.614V20.2205C187.614 23.764 189.869 24.2445 191.042 24.2445C191.463 24.2445 191.734 24.1845 191.734 24.1845V25.9562C191.734 25.9562 191.373 26.0163 190.862 26.0163C189.118 26.0163 185.569 25.4457 185.569 20.4007V12.4727Z" fill="white"/>
<path d="M141.343 32.6631H142.235V33.0935C142.235 33.2937 142.215 33.4639 142.215 33.4639H142.235C142.235 33.4639 142.666 32.543 143.94 32.543C145.303 32.543 146.165 33.6241 146.165 35.1956C146.165 36.8072 145.193 37.8483 143.869 37.8483C142.757 37.8483 142.316 37.0174 142.316 37.0174H142.296C142.296 37.0174 142.316 37.1976 142.316 37.4579V39.7302H141.343V32.6631ZM143.719 37.0174C144.521 37.0174 145.183 36.3568 145.183 35.2056C145.183 34.1045 144.591 33.3938 143.749 33.3938C142.987 33.3938 142.286 33.9244 142.286 35.2156C142.286 36.1165 142.787 37.0174 143.719 37.0174Z" fill="white"/>
<path d="M149.95 34.565H150.17V34.4749C150.17 33.6441 149.699 33.3638 149.058 33.3638C148.276 33.3638 147.644 33.8543 147.644 33.8543L147.243 33.1436C147.243 33.1436 147.975 32.543 149.138 32.543C150.421 32.543 151.143 33.2437 151.143 34.525V37.7282H150.241V37.2477C150.241 37.0174 150.261 36.8473 150.261 36.8473H150.241C150.241 36.8473 149.83 37.8483 148.616 37.8483C147.744 37.8483 146.892 37.3177 146.892 36.3067C146.892 34.6351 149.098 34.565 149.95 34.565ZM148.827 37.0675C149.649 37.0675 150.18 36.2066 150.18 35.4559V35.2957H149.93C149.198 35.2957 147.875 35.3458 147.875 36.2567C147.875 36.6671 148.195 37.0675 148.827 37.0675Z" fill="white"/>
<path d="M152.536 32.6633H153.479V33.5442C153.479 33.7544 153.459 33.9246 153.459 33.9246H153.479C153.709 33.1839 154.301 32.6033 155.083 32.6033C155.213 32.6033 155.333 32.6233 155.333 32.6233V33.5843C155.333 33.5843 155.203 33.5542 155.053 33.5542C154.431 33.5542 153.86 33.9947 153.629 34.7454C153.539 35.0357 153.509 35.346 153.509 35.6563V37.7284H152.536V32.6633Z" fill="white"/>
<path d="M156.606 33.5142H155.945V32.7334H156.636V31.2719H157.579V32.7334H158.802V33.5142H157.579V35.7664C157.579 36.7774 158.29 36.9076 158.661 36.9076C158.802 36.9076 158.892 36.8875 158.892 36.8875V37.7484C158.892 37.7484 158.752 37.7684 158.551 37.7684C157.899 37.7684 156.606 37.5682 156.606 35.8765V33.5142Z" fill="white"/>
<path d="M164.932 32.543C166.446 32.543 167.669 33.6541 167.669 35.1856C167.669 36.7272 166.446 37.8483 164.932 37.8483C163.418 37.8483 162.195 36.7272 162.195 35.1856C162.19 33.6541 163.413 32.543 164.932 32.543ZM164.932 37.0074C165.895 37.0074 166.676 36.2467 166.676 35.1856C166.676 34.1346 165.895 33.3838 164.932 33.3838C163.98 33.3838 163.188 34.1346 163.188 35.1856C163.183 36.2467 163.975 37.0074 164.932 37.0074Z" fill="white"/>
<path d="M168.922 33.5141H168.29V32.7333H168.922V32.493C168.922 30.8214 170.185 30.6112 170.827 30.6112C171.047 30.6112 171.198 30.6412 171.198 30.6412V31.472C171.198 31.472 171.097 31.452 170.947 31.452C170.576 31.452 169.884 31.5721 169.884 32.5131V32.7333H171.087V33.5141H169.884V37.7283H168.922V33.5141Z" fill="white"/>
<path d="M174.797 30.6613H178.907V31.5221H175.789V33.7343H178.326V34.5952H175.789V36.8675H179.078V37.7283H174.797V30.6613Z" fill="white"/>
<path d="M184.205 35.6963H181.539L180.837 37.7283H179.814L182.361 30.6613H183.403L185.95 37.7283H184.917L184.205 35.6963ZM182.872 31.6322C182.872 31.6322 182.712 32.2729 182.591 32.6332L181.799 34.8755H183.945L183.163 32.6332C183.042 32.2729 182.892 31.6322 182.892 31.6322H182.872Z" fill="white"/>
<path d="M186.917 30.6613H189.393C190.586 30.6613 191.448 31.3219 191.448 32.4631C191.448 33.1538 191.108 33.7043 190.566 33.9846V34.0046C191.308 34.2248 191.729 34.9255 191.729 35.7163C191.729 37.0477 190.696 37.7283 189.453 37.7283H186.917V30.6613ZM189.393 33.6342C190.035 33.6342 190.436 33.1838 190.436 32.5632C190.436 31.9425 190.055 31.5221 189.373 31.5221H187.91V33.6342H189.393ZM189.503 36.8675C190.265 36.8675 190.717 36.387 190.717 35.6663C190.717 34.9455 190.235 34.4551 189.493 34.4551H187.91V36.8675H189.503Z" fill="white"/>
<path d="M23.2931 28.4239C24.1603 26.557 24.0951 24.4499 23.1127 22.3328C22.0751 20.0956 20.035 17.8633 17.0575 15.7062C12.065 12.0876 10.0099 8.27376 11.4134 5.24072C12.2655 3.40389 14.2856 1.94743 17.1026 1.13662C18.0099 0.876359 18.9673 0.696179 19.9598 0.591074C18.842 0.350833 17.6841 0.220703 16.4961 0.220703C16.3708 0.220703 16.2455 0.220703 16.1202 0.225708C14.5011 0.260743 12.9322 0.831314 11.7142 1.89738C10.847 2.65314 10.1803 3.519 9.73922 4.47496C8.87206 6.34183 8.93722 8.44893 9.91967 10.566C10.9573 12.8033 12.9974 15.0355 15.9748 17.1927C20.9673 20.8113 23.0224 24.6251 21.6189 27.6581C20.7668 29.495 18.7467 30.9514 15.9297 31.7622C15.0375 32.0175 14.0951 32.1977 13.1177 32.3028C14.2104 32.533 15.3382 32.6581 16.4961 32.6581C16.7016 32.6581 16.9122 32.6531 17.1177 32.6481C18.6866 32.5881 20.2004 31.9975 21.3733 30.9564C22.2104 30.2057 22.862 29.3598 23.2931 28.4239Z" fill="white"/>
<path d="M28.446 23.8792C27.8145 20.4707 25.0074 16.9122 19.8696 12.9983C17.3182 11.0563 16.1904 9.04933 16.6064 7.18747C17.1077 4.94022 19.8546 3.03331 23.9899 2.04232L23.3984 1.73702C22.4761 1.25654 21.3884 1.2165 20.436 1.62691C17.4936 2.88316 15.619 4.70499 15.1378 6.86214C14.7518 8.58887 15.1027 11.2615 18.9573 14.1945C28.2756 21.2916 28.015 25.8762 25.7944 29.735C26.3708 29.3346 26.9172 28.8942 27.4335 28.4237C28.0651 27.8481 28.4711 27.0623 28.5513 26.2165C28.6265 25.4707 28.5964 24.695 28.446 23.8792Z" fill="white"/>
<path d="M25.0023 13.0636C23.278 11.8124 21.283 9.92047 21.5838 8.01356C21.8344 6.41196 23.6439 4.93548 26.7016 3.81937C26.5412 3.68924 26.3758 3.5591 26.2053 3.43398C25.8294 3.1537 25.3281 3.09864 24.9021 3.29384C21.6139 4.79534 20.6314 6.53708 20.4309 7.83338C20.1151 9.83038 21.4234 11.9075 24.3156 14.0096C29.9798 18.1187 31.1627 21.6822 31.4083 22.8784C31.5236 22.6182 31.6289 22.3529 31.7291 22.0826C31.9697 21.442 31.9347 20.7263 31.6139 20.1207C30.6364 18.2688 28.7266 15.7663 25.0023 13.0636Z" fill="white"/>
<path d="M28.3507 11.9724C26.5111 10.4509 25.649 9.07451 25.8595 7.98843C26.0349 7.07751 26.9773 6.2667 28.6013 5.62106C28.4359 5.43587 28.2655 5.25569 28.0951 5.08052C28.0299 5.01545 27.9296 4.99543 27.8494 5.03547C26.2003 5.77121 25.258 6.71215 25.0424 7.83327C24.7667 9.25469 25.7041 10.8663 27.8194 12.6181C30.3958 14.7502 31.9246 16.572 32.7016 17.6231C32.7116 17.4529 32.7266 17.2177 32.7367 16.9924C32.7517 16.557 32.6013 16.1316 32.3156 15.8012C31.4083 14.7552 30.1201 13.4389 28.3507 11.9724Z" fill="white"/>
<path d="M29.5991 6.84739C29.549 6.78232 29.4487 6.77732 29.3936 6.83738C28.9074 7.40294 28.6417 7.94348 28.6517 8.53908C28.6768 9.6602 29.6442 10.8514 32.3811 13.0186C32.356 12.9034 32.3309 12.7833 32.3009 12.6682C32.2156 12.3028 32.0101 11.9725 31.7244 11.7273C29.94 10.2208 29.2532 9.30484 29.2382 8.52406C29.2282 8.08362 29.4487 7.6582 29.8497 7.19273C29.7645 7.08262 29.6843 6.9625 29.5991 6.84739Z" fill="white"/>
<path d="M4.55132 8.99453C5.1829 12.4029 7.98991 15.9615 13.1278 19.8754C15.6791 21.8174 16.807 23.8244 16.3909 25.6862C15.8897 27.9335 13.1428 29.8404 9.00746 30.8314L9.59894 31.1367C10.5212 31.6172 11.609 31.6572 12.5613 31.2468C15.4987 29.9905 17.3734 28.1687 17.8546 26.0065C18.2405 24.2798 17.8897 21.6071 14.035 18.6742C4.72676 11.5821 4.98741 6.99754 7.20295 3.13868C6.62651 3.53908 6.08014 3.97952 5.56385 4.44999C4.93227 5.02556 4.52626 5.81135 4.44605 6.6572C4.37588 7.39794 4.40094 8.17872 4.55132 8.99453Z" fill="white"/>
<path d="M7.99514 19.8103C9.71945 21.0616 11.7144 22.9535 11.4137 24.8604C11.1631 26.462 9.35353 27.9385 6.29589 29.0546C6.45629 29.1847 6.6217 29.3148 6.79213 29.44C7.16807 29.7202 7.66932 29.7753 8.09539 29.5801C11.3836 28.0786 12.3661 26.3369 12.5666 25.0406C12.8824 23.0436 11.5741 20.9665 8.68185 18.8644C3.02271 14.7553 1.83474 11.1917 1.58912 9.99552C1.47383 10.2558 1.36857 10.521 1.26832 10.7913C1.02772 11.432 1.06281 12.1477 1.38361 12.7533C2.36105 14.6051 4.27083 17.1076 7.99514 19.8103Z" fill="white"/>
<path d="M4.65121 20.9015C6.49081 22.423 7.35297 23.7994 7.14244 24.8854C6.967 25.7964 6.02465 26.6072 4.40059 27.2528C4.566 27.438 4.73643 27.6182 4.90685 27.7933C4.97202 27.8584 5.07227 27.8784 5.15247 27.8384C6.80159 27.1027 7.74395 26.1617 7.95949 25.0406C8.23517 23.6192 7.29783 22.0076 5.18254 20.2558C2.6061 18.1237 1.07728 16.3019 0.300337 15.2508C0.290312 15.421 0.275274 15.6562 0.265249 15.8814C0.250212 16.3169 0.400588 16.7423 0.686302 17.0726C1.58856 18.1187 2.87678 19.435 4.65121 20.9015Z" fill="white"/>
<path d="M3.39758 26.0264C3.44771 26.0915 3.54796 26.0965 3.6031 26.0364C4.08931 25.4709 4.35498 24.9303 4.34495 24.3347C4.31989 23.2136 3.35247 22.0224 0.615629 19.8553C0.640691 19.9704 0.665754 20.0905 0.695829 20.2056C0.781042 20.571 0.986556 20.9013 1.27227 21.1466C3.05673 22.6531 3.74345 23.569 3.75849 24.3498C3.76851 24.7902 3.54796 25.2156 3.14696 25.6811C3.23217 25.7912 3.31237 25.9063 3.39758 26.0264Z" fill="white"/>
</svg>
