<svg width="40" height="40" viewBox="0 0 40 40" fill="none" xmlns="http://www.w3.org/2000/svg">
<path d="M28.3665 34.7786C29.4347 32.4765 29.3544 29.8781 28.1442 27.2674C26.8661 24.5086 24.3532 21.7559 20.6857 19.0958C14.536 14.6335 12.0046 9.93057 13.7334 6.1904C14.783 3.92532 17.2713 2.1293 20.7412 1.12946C21.8588 0.808517 23.0381 0.586329 24.2606 0.45672C22.8837 0.160469 21.4574 0 19.9941 0C19.8398 0 19.6854 -5.58794e-09 19.5311 0.00617188C17.5368 0.0493751 15.6042 0.75297 14.1038 2.06758C13.0357 2.99954 12.2145 4.06727 11.6712 5.2461C10.603 7.54822 10.6833 10.1466 11.8934 12.7573C13.1715 15.5161 15.6845 18.2688 19.352 20.9289C25.5016 25.3911 28.0331 30.0941 26.3043 33.8343C25.2546 36.0994 22.7664 37.8954 19.2964 38.8952C18.1974 39.21 17.0366 39.4322 15.8326 39.5618C17.1786 39.8457 18.5679 40 19.9941 40C20.2473 40 20.5066 39.9938 20.7597 39.9877C22.6923 39.9136 24.5569 39.1853 26.0017 37.9016C27.0328 36.9758 27.8355 35.9327 28.3665 34.7786Z" fill="white"/>
<path d="M34.7135 29.1745C33.9356 24.9715 30.478 20.5833 24.1493 15.7569C21.0066 13.3622 19.6173 10.8872 20.1298 8.5913C20.7472 5.82012 24.1308 3.46864 29.2246 2.2466L28.496 1.87012C27.3599 1.27762 26.0201 1.22824 24.847 1.73434C21.2227 3.28348 18.9135 5.53005 18.3207 8.19013C17.8453 10.3194 18.2775 13.6152 23.0256 17.2319C34.5036 25.9837 34.1826 31.6371 31.4473 36.3956C32.1574 35.9019 32.8304 35.3588 33.4663 34.7786C34.2443 34.0688 34.7444 33.0999 34.8432 32.0568C34.9358 31.1372 34.8988 30.1806 34.7135 29.1745Z" fill="white"/>
<path d="M30.4718 15.8371C28.3478 14.2941 25.8904 11.9611 26.2609 9.60964C26.5696 7.63464 28.7985 5.81393 32.5649 4.4376C32.3673 4.27713 32.1635 4.11666 31.9536 3.96236C31.4905 3.61674 30.8731 3.54884 30.3483 3.78955C26.2979 5.64112 25.0878 7.78893 24.8408 9.38745C24.4518 11.85 26.0633 14.4114 29.6259 17.0036C36.6029 22.0707 38.06 26.4651 38.3625 27.9402C38.5046 27.6192 38.6342 27.2921 38.7577 26.9588C39.0541 26.1688 39.0108 25.2862 38.6157 24.5394C37.4117 22.2558 35.0593 19.1699 30.4718 15.8371Z" fill="white"/>
<path d="M34.5963 14.4915C32.3303 12.6153 31.2683 10.918 31.5276 9.5787C31.7437 8.45541 32.9045 7.45557 34.905 6.6594C34.7012 6.43104 34.4913 6.20885 34.2814 5.99283C34.2011 5.9126 34.0776 5.88791 33.9788 5.93729C31.9475 6.84455 30.7867 8.00487 30.5212 9.38737C30.1816 11.1402 31.3362 13.1275 33.9418 15.2877C37.1154 17.9169 38.9985 20.1635 39.9555 21.4596C39.9679 21.2497 39.9864 20.9597 39.9988 20.6819C40.0173 20.145 39.8321 19.6204 39.4801 19.213C38.3626 17.9231 36.7758 16.2999 34.5963 14.4915Z" fill="white"/>
<path d="M36.134 8.17154C36.0722 8.09131 35.9487 8.08513 35.8808 8.1592C35.2819 8.85662 34.9547 9.52318 34.967 10.2576C34.9979 11.6401 36.1895 13.109 39.5607 15.7815C39.5298 15.6395 39.499 15.4914 39.4619 15.3494C39.3569 14.8989 39.1038 14.4915 38.7519 14.1891C36.5538 12.3314 35.7079 11.2019 35.6894 10.2391C35.6771 9.696 35.9487 9.17139 36.4427 8.5974C36.3377 8.46162 36.2389 8.31349 36.134 8.17154Z" fill="white"/>
<path d="M5.28082 10.8191C6.05879 15.0222 9.5164 19.4104 15.8451 24.2368C18.9878 26.6315 20.377 29.1064 19.8645 31.4024C19.2471 34.1735 15.8636 36.525 10.7698 37.7471L11.4984 38.1236C12.6344 38.7161 13.9743 38.7654 15.1474 38.2593C18.7655 36.7102 21.0747 34.4636 21.6674 31.7974C22.1429 29.6681 21.7107 26.3723 16.9626 22.7556C5.49692 14.01 5.81799 8.35655 8.54703 3.59802C7.83699 4.09177 7.16399 4.6349 6.52803 5.21506C5.75007 5.92482 5.24995 6.89381 5.15116 7.93686C5.06472 8.8503 5.09559 9.81311 5.28082 10.8191Z" fill="white"/>
<path d="M9.5227 24.1569C11.6467 25.6999 14.104 28.0328 13.7336 30.3843C13.4249 32.3593 11.1959 34.18 7.4296 35.5564C7.62718 35.7168 7.83093 35.8773 8.04086 36.0316C8.50393 36.3772 9.12136 36.4451 9.64618 36.2044C13.6965 34.3529 14.9067 32.205 15.1537 30.6065C15.5426 28.1439 13.9312 25.5826 10.3686 22.9904C3.39778 17.9233 1.93447 13.5289 1.63192 12.0538C1.48992 12.3748 1.36026 12.7019 1.23677 13.0352C0.940402 13.8252 0.983622 14.7077 1.37878 15.4545C2.58277 17.7381 4.93518 20.8241 9.5227 24.1569Z" fill="white"/>
<path d="M5.40379 25.5025C7.66976 27.3788 8.73174 29.0761 8.47242 30.4154C8.25632 31.5386 7.09555 32.5385 5.09507 33.3347C5.29883 33.563 5.50875 33.7852 5.71868 34.0012C5.79894 34.0815 5.92243 34.1061 6.02122 34.0568C8.05257 33.1495 9.21334 31.9892 9.47883 30.6067C9.81842 28.8539 8.66383 26.8665 6.05827 24.7064C2.88467 22.0772 1.0015 19.8306 0.0444866 18.5345C0.032138 18.7443 0.013615 19.0344 0.00126643 19.3121C-0.0172565 19.8491 0.167973 20.3737 0.519909 20.7811C1.63128 22.071 3.21808 23.6942 5.40379 25.5025Z" fill="white"/>
<path d="M3.85949 31.8226C3.92123 31.9028 4.04472 31.909 4.11263 31.8349C4.71154 31.1375 5.03878 30.4709 5.02643 29.7365C4.99556 28.354 3.80392 26.8851 0.432744 24.2126C0.463616 24.3546 0.494487 24.5027 0.531533 24.6447C0.636496 25.0952 0.889643 25.5026 1.24158 25.805C3.43963 27.6627 4.28551 28.7922 4.30404 29.755C4.31639 30.2981 4.04472 30.8227 3.55077 31.3967C3.65573 31.5325 3.75452 31.6745 3.85949 31.8226Z" fill="white"/>
</svg>
