<svg width="154" height="120" viewBox="0 0 154 120" fill="none" xmlns="http://www.w3.org/2000/svg">
<path d="M34.223 88.0002H7C5.14349 88.0002 3.36301 87.2627 2.05025 85.9499C0.737498 84.6372 0 82.8567 0 81.0002V39.0002C0 37.1436 0.737498 35.3632 2.05025 34.0504C3.36301 32.7377 5.14349 32.0002 7 32.0002H34.223L71.281 1.67615C71.7938 1.25578 72.4154 0.989705 73.0735 0.908902C73.7316 0.828099 74.3991 0.935892 74.9983 1.21973C75.5975 1.50357 76.1038 1.95178 76.4582 2.51218C76.8126 3.07258 77.0005 3.72211 77 4.38515V115.615C77.0005 116.278 76.8126 116.928 76.4582 117.488C76.1038 118.049 75.5975 118.497 74.9983 118.781C74.3991 119.064 73.7316 119.172 73.0735 119.091C72.4154 119.011 71.7938 118.745 71.281 118.324L34.23 88.0002H34.223ZM128.842 116.938L118.93 107.026C125.566 101.122 130.875 93.8779 134.506 85.772C138.138 77.6661 140.011 68.8825 140 60.0002C140.009 50.6628 137.938 41.4407 133.937 33.0038C129.936 24.5668 124.107 17.1268 116.872 11.2242L126.812 1.28415C135.341 8.50498 142.193 17.4995 146.888 27.6405C151.584 37.7815 154.011 48.8248 154 60.0002C154 82.5612 144.298 102.854 128.842 116.938ZM104.041 92.1372L94.087 82.1832C97.4853 79.5701 100.237 76.2103 102.129 72.3638C104.022 68.5173 105.004 64.287 105 60.0002C105 49.9902 99.75 41.2052 91.84 36.2562L101.913 26.1832C107.215 30.0835 111.525 35.1771 114.493 41.052C117.462 46.9268 119.006 53.4179 119 60.0002C119 72.8942 113.19 84.4302 104.041 92.1372Z" fill="#D1DCE7"/>
</svg>
